
<svg xmlns="http://www.w3.org/2000/svg" xmlns:xlink="http://www.w3.org/1999/xlink" preserveAspectRatio="none" width="100%" height="100%" fill="currentColor">
<style>*{fill: currentColor} </style>


<symbol fill="currentColor" viewBox="0 0 528 520" id="icon-fit">
	<path d="M44 514l135-135v56q0 21 21 21t21-21V328q0-21-21-21H93q-21 0-21 21t21 21h56L14 484q-14 14 0 30q8 6 15 6q9 0 15-6zm335-165h56q21 0 21-21t-21-21H328q-21 0-21 21v107q0 21 21 21t21-21v-56l135 135q6 6 15 6q7 0 15-6q14-16 0-30zM484 14L349 149V93q0-21-21-21t-21 21v107q0 21 21 21h107q21 0 21-21t-21-21h-56L514 44q14-14 0-30q-16-14-30 0zM14 14Q0 30 14 44l135 135H93q-21 0-21 21t21 21h107q21 0 21-21V93q0-21-21-21t-21 21v56L44 14Q30 0 14 14z" fill="currentColor"></path>
</symbol>

<symbol fill="currentColor" viewBox="0 0 24 24" id="icon-add">
	<path d="M12 4C12.5523 4 13 4.44772 13 5V11H19C19.5523 11 20 11.4477 20 12C20 12.5523 19.5523 13 19 13H13V19C13 19.5523 12.5523 20 12 20C11.4477 20 11 19.5523 11 19V13H5C4.44772 13 4 12.5523 4 12C4 11.4477 4.44772 11 5 11H11V5C11 4.44772 11.4477 4 12 4Z"></path>
</symbol>

<symbol fill="currentColor" viewBox="0 0 20 20" id="icon-plus">
	<path fill-rule="evenodd" d="M10 5a1 1 0 011 1v3h3a1 1 0 110 2h-3v3a1 1 0 11-2 0v-3H6a1 1 0 110-2h3V6a1 1 0 011-1z" clip-rule="evenodd"></path>
</symbol>


<symbol fill="currentColor" viewBox="0 0 20 20" id="icon-minus">
	<path fill-rule="evenodd" d="M3 10a1 1 0 011-1h12a1 1 0 110 2H4a1 1 0 01-1-1z" clip-rule="evenodd"></path>
</symbol>


<symbol fill="currentColor" viewBox="0 0 24 24" id="icon-remove">
	<path d="M5.29289 5.29289C5.68342 4.90237 6.31658 4.90237 6.70711 5.29289L12 10.5858L17.2929 5.29289C17.6834 4.90237 18.3166 4.90237 18.7071 5.29289C19.0976 5.68342 19.0976 6.31658 18.7071 6.70711L13.4142 12L18.7071 17.2929C19.0976 17.6834 19.0976 18.3166 18.7071 18.7071C18.3166 19.0976 17.6834 19.0976 17.2929 18.7071L12 13.4142L6.70711 18.7071C6.31658 19.0976 5.68342 19.0976 5.29289 18.7071C4.90237 18.3166 4.90237 17.6834 5.29289 17.2929L10.5858 12L5.29289 6.70711C4.90237 6.31658 4.90237 5.68342 5.29289 5.29289Z"></path>
</symbol>

<symbol fill="currentColor" viewBox="0 0 24 24" id="icon-edit">
	<path d="M16.2929 2.29289C16.6834 1.90237 17.3166 1.90237 17.7071 2.29289L21.7071 6.29289C22.0976 6.68342 22.0976 7.31658 21.7071 7.70711L8.70711 20.7071C8.51957 20.8946 8.26522 21 8 21H4C3.44772 21 3 20.5523 3 20V16C3 15.7348 3.10536 15.4804 3.29289 15.2929L13.2927 5.2931L16.2929 2.29289ZM14 7.41421L5 16.4142V19H7.58579L16.5858 10L14 7.41421ZM18 8.58579L19.5858 7L17 4.41421L15.4142 6L18 8.58579Z"></path>
</symbol>

<symbol fill="currentColor" viewBox="0 0 32 32" id="icon-center">
	<path d="M27.71 4.29a1 1 0 0 0-1.05-.23l-22 8a1 1 0 0 0 0 1.87l8.59 3.43L19.59 11L21 12.41l-6.37 6.37l3.44 8.59A1 1 0 0 0 19 28a1 1 0 0 0 .92-.66l8-22a1 1 0 0 0-.21-1.05z"></path>
</symbol>

</svg>